<?xml version="1.0" standalone="no"?>
<!DOCTYPE svg PUBLIC "-//W3C//DTD SVG 20010904//EN"
 "http://www.w3.org/TR/2001/REC-SVG-20010904/DTD/svg10.dtd">
<svg version="1.0" xmlns="http://www.w3.org/2000/svg"
 width="1280.000000pt" height="1208.000000pt" viewBox="0 0 1280.000000 1208.000000"
 preserveAspectRatio="xMidYMid meet">
<metadata>
Created by potrace 1.15, written by Peter Selinger 2001-2017
</metadata>
<g transform="translate(0.000000,1208.000000) scale(0.100000,-0.100000)"
fill="#EB6440" stroke="none">
<path d="M6900 12074 c-19 -3 -73 -14 -119 -25 -382 -94 -727 -423 -827 -789
-13 -46 -18 -101 -18 -190 0 -114 4 -139 43 -290 79 -310 134 -483 311 -985
76 -214 156 -448 179 -519 73 -227 99 -405 68 -466 -27 -54 -113 -72 -229 -50
-156 31 -168 38 -197 114 -54 146 -53 450 4 766 29 162 13 241 -63 319 -72 74
-136 94 -282 88 -138 -5 -245 -34 -397 -107 -137 -65 -227 -125 -317 -210
-122 -116 -168 -204 -168 -322 0 -138 81 -241 328 -419 172 -124 244 -195 244
-240 0 -33 -39 -116 -78 -166 -42 -56 -129 -90 -266 -104 -65 -6 -139 -9 -165
-6 -166 20 -352 159 -573 428 -119 146 -167 212 -408 569 -363 537 -497 701
-658 805 -218 140 -492 215 -787 215 -206 0 -374 -34 -522 -106 -215 -104
-323 -280 -292 -477 57 -355 409 -755 953 -1082 319 -192 673 -339 1151 -480
233 -68 390 -141 453 -209 56 -60 60 -84 28 -149 -39 -79 -95 -138 -271 -284
-204 -170 -335 -238 -481 -250 l-61 -6 -5 59 c-5 76 -39 143 -100 200 -90 84
-202 120 -354 112 -76 -4 -104 -11 -159 -36 -88 -42 -135 -80 -180 -147 -109
-165 -97 -327 30 -412 31 -20 109 -53 183 -78 227 -75 279 -117 289 -233 6
-69 -20 -203 -43 -223 -20 -16 -97 -14 -173 6 -167 43 -448 200 -713 398 -217
163 -350 279 -584 512 -168 168 -238 230 -293 263 -319 188 -693 123 -987
-173 -172 -173 -294 -415 -339 -670 -18 -104 -21 -320 -5 -422 87 -553 486
-930 1150 -1087 197 -47 326 -60 585 -60 312 -1 428 18 695 111 233 82 343
107 475 107 99 1 116 -2 160 -24 74 -38 101 -97 116 -257 11 -113 10 -125 -7
-158 -11 -19 -45 -55 -78 -79 -119 -89 -1069 -576 -1211 -620 -178 -57 -398
-89 -720 -106 -419 -22 -595 -55 -791 -145 -297 -137 -450 -394 -416 -701 20
-185 117 -425 240 -598 71 -100 237 -269 317 -323 396 -266 807 -201 1319 211
50 41 161 138 247 217 86 79 208 191 270 248 63 57 220 208 349 336 259 255
291 278 416 296 81 12 224 4 309 -18 210 -52 384 -220 457 -438 20 -60 23 -90
23 -210 l0 -140 -44 -65 c-89 -130 -173 -223 -561 -615 -218 -220 -433 -445
-479 -500 -427 -514 -460 -924 -104 -1278 219 -218 539 -378 784 -394 414 -27
705 306 833 952 48 243 67 409 86 755 13 230 23 315 51 430 41 163 131 304
232 363 84 49 142 62 282 62 154 0 204 -9 480 -87 179 -51 306 -84 579 -151
43 -10 51 -16 67 -52 40 -87 29 -136 -136 -635 -197 -598 -240 -795 -240
-1105 0 -182 1 -194 29 -275 80 -242 217 -411 401 -500 106 -51 170 -65 290
-64 302 1 577 189 784 536 100 167 141 298 141 456 0 181 -31 276 -204 619
-57 114 -130 271 -161 348 -32 77 -93 217 -137 310 -105 222 -104 220 -72 266
42 60 206 135 423 193 183 49 259 60 426 60 148 1 163 -1 202 -22 49 -26 50
-28 57 -177 19 -405 222 -602 736 -711 125 -26 276 -25 364 4 181 60 307 205
362 417 14 54 18 107 18 235 0 257 -37 378 -150 494 -78 80 -161 131 -364 225
-253 118 -312 157 -351 232 -25 51 -24 62 11 102 109 125 556 235 968 240 145
2 148 2 195 -26 134 -79 303 -280 592 -707 294 -433 339 -489 466 -565 221
-135 591 -176 943 -104 205 41 421 128 567 226 166 110 308 278 349 409 28 92
27 239 -1 348 -108 409 -553 893 -1057 1150 -240 121 -424 171 -637 170 -114
0 -144 -4 -250 -33 -349 -94 -617 -18 -884 251 -96 97 -252 305 -298 396 -24
50 -25 57 -15 103 29 126 166 268 258 269 12 0 59 -20 106 -45 286 -152 702
-93 876 125 107 132 145 267 117 406 -26 127 -75 214 -180 320 -78 79 -104 98
-185 137 -197 94 -399 103 -560 24 -51 -25 -120 -90 -170 -162 -19 -27 -42
-51 -51 -53 -47 -9 -182 148 -258 298 -70 140 -78 254 -25 366 38 83 161 204
297 292 140 91 368 208 445 227 128 33 231 -5 567 -210 298 -181 503 -245 754
-232 235 12 448 94 726 280 297 199 477 419 535 657 19 76 17 230 -4 309 -79
295 -371 557 -779 700 -185 65 -421 94 -572 71 -249 -37 -560 -194 -925 -465
-147 -110 -262 -203 -595 -485 -354 -299 -418 -351 -520 -422 -96 -66 -156
-98 -187 -98 -137 0 -277 365 -244 633 12 91 32 110 181 171 393 160 603 274
704 381 85 90 118 192 100 307 -12 76 -76 239 -125 319 -138 228 -366 369
-594 369 -143 0 -256 -45 -350 -140 -104 -105 -148 -220 -159 -412 l-7 -128
-44 -46 c-181 -185 -691 -283 -917 -177 -201 94 -383 436 -400 748 -7 137 -2
156 121 500 104 289 144 420 184 605 24 114 27 144 26 340 0 248 -11 307 -88
465 -115 235 -311 367 -558 379 -51 2 -109 2 -128 0z"/>
</g>
</svg>
