<?xml version="1.0" standalone="no"?>
<!DOCTYPE svg PUBLIC "-//W3C//DTD SVG 20010904//EN"
 "http://www.w3.org/TR/2001/REC-SVG-20010904/DTD/svg10.dtd">
<svg version="1.0" xmlns="http://www.w3.org/2000/svg"
 width="322.000000pt" height="281.000000pt" viewBox="0 0 322.000000 281.000000"
 preserveAspectRatio="xMidYMid meet">

<g transform="translate(0.000000,281.000000) scale(0.100000,-0.100000)"
fill="#EB6440" stroke="none">
<path d="M1040 2785 c0 -17 -56 -49 -70 -40 -13 8 -23 -35 -17 -72 6 -39 50
-108 82 -129 35 -23 87 -11 119 26 48 58 46 137 -6 195 -25 29 -37 35 -69 35
-28 0 -39 -4 -39 -15z m80 -164 c0 -13 -26 -32 -33 -24 -8 7 11 33 24 33 5 0
9 -4 9 -9z"/>
<path d="M1797 2557 c-15 -12 -36 -46 -47 -75 -19 -49 -19 -52 -3 -42 10 5 42
32 72 59 38 34 52 54 48 65 -9 22 -37 20 -70 -7z"/>
<path d="M1223 2425 c-24 -10 -34 -23 -42 -52 -6 -21 -11 -43 -11 -50 0 -6 30
-38 66 -70 56 -50 94 -97 94 -118 0 -12 -40 -3 -84 20 -25 13 -46 23 -46 21 0
-3 23 -21 50 -41 28 -20 50 -42 49 -48 0 -14 -146 -88 -171 -87 -9 0 -31 18
-48 40 -37 46 -61 50 -95 15 -37 -36 -32 -64 17 -107 l43 -37 -22 -22 c-20
-20 -32 -22 -125 -23 -57 -1 -116 2 -133 6 -21 6 -16 0 20 -18 28 -15 53 -32
57 -38 4 -6 8 -44 8 -84 0 -55 -4 -74 -15 -78 -8 -3 -45 8 -82 26 -127 60
-158 58 -194 -13 -36 -70 -6 -98 105 -96 79 2 105 -6 117 -38 24 -63 1 -95
-72 -103 l-54 -6 52 -27 c57 -30 73 -59 57 -106 -15 -42 -44 -49 -212 -51
-174 -1 -217 -11 -228 -55 -10 -38 10 -71 49 -84 36 -12 47 -11 257 39 85 21
99 22 125 9 16 -8 34 -26 39 -41 9 -25 4 -33 -52 -92 -64 -66 -74 -93 -46
-120 17 -17 26 -18 121 -16 50 1 68 -3 92 -21 55 -41 35 -99 -76 -219 -37 -41
-61 -70 -53 -65 39 22 141 110 198 169 34 36 66 66 70 66 21 0 72 -43 78 -64
7 -29 -42 -144 -79 -186 -19 -21 -20 -23 -2 -10 11 8 38 29 59 47 36 30 46 33
103 33 135 0 160 -54 78 -173 -25 -37 -45 -77 -45 -91 0 -49 62 -80 104 -52
25 16 36 42 56 139 12 60 58 127 86 127 8 0 34 -10 57 -22 24 -12 70 -24 107
-27 l65 -6 5 -54 c5 -49 8 -55 40 -72 47 -26 73 -24 110 8 27 22 31 31 26 57
-4 16 -15 40 -26 51 -11 12 -20 33 -20 46 0 27 46 79 71 79 8 0 39 -16 68 -36
35 -24 52 -31 48 -20 -11 29 3 46 39 46 21 0 70 -19 131 -51 l98 -50 -45 38
c-25 21 -62 54 -82 73 l-38 35 9 58 c4 32 15 65 23 73 20 20 79 33 148 34 63
0 85 -11 180 -94 35 -31 75 -59 89 -63 31 -8 72 15 89 49 21 44 1 75 -65 104
-32 14 -80 35 -107 47 -29 13 -52 31 -57 45 -15 39 -10 119 11 179 11 32 20
60 20 64 0 3 -12 24 -26 45 l-26 38 35 32 c45 41 84 52 230 65 64 5 128 14
141 19 49 18 56 78 15 116 -24 22 -95 16 -162 -14 -26 -12 -50 -21 -52 -22 -3
0 -23 -7 -46 -15 -56 -20 -139 -19 -168 1 -29 20 -26 45 19 161 35 91 88 160
159 205 71 45 33 33 -51 -17 -87 -51 -169 -69 -238 -54 -61 14 -80 26 -80 54
0 31 42 65 165 135 127 71 157 114 119 168 -27 39 -57 28 -146 -56 -46 -42
-97 -88 -115 -100 -69 -49 -175 -35 -207 27 -9 17 -19 59 -22 93 -7 71 -25
108 -53 108 -11 0 -44 -20 -74 -45 -53 -43 -58 -45 -122 -45 -62 0 -68 2 -96
33 -29 31 -30 35 -26 101 l5 69 -21 -47 c-11 -25 -23 -46 -27 -46 -4 0 -23 7
-42 14 -19 8 -44 13 -55 10 -11 -3 -43 4 -70 16 -48 21 -50 22 -71 94 -16 55
-29 81 -53 100 -34 29 -50 31 -96 11z"/>
<path d="M2053 2339 c-54 -50 -42 -109 23 -109 24 0 39 9 63 37 37 43 39 66 9
87 -33 24 -59 19 -95 -15z m33 -66 c-10 -10 -19 5 -10 18 6 11 8 11 12 0 2 -7
1 -15 -2 -18z"/>
<path d="M910 2307 c0 -36 28 -66 73 -77 23 -6 50 -14 60 -17 14 -4 18 0 15
13 -1 10 -5 16 -8 13 -3 -2 -25 17 -49 44 -49 53 -91 64 -91 24z"/>
<path d="M175 2141 c-91 -7 -138 -32 -160 -85 -16 -38 -6 -60 37 -82 25 -13
51 -16 127 -12 95 5 262 -4 331 -18 l35 -7 -27 34 c-15 19 -31 33 -37 32 -6
-2 -11 1 -11 6 0 16 -115 99 -165 121 -26 11 -47 19 -48 18 -1 -1 -38 -4 -82
-7z"/>
<path d="M3057 2060 c-47 -46 -113 -94 -217 -158 -44 -27 -31 -28 113 -3 76
13 119 27 146 44 77 51 97 167 29 167 -10 0 -42 -23 -71 -50z"/>
<path d="M3050 1553 c-42 -6 -90 -38 -90 -63 0 -24 43 -51 91 -57 68 -10 159
39 159 84 0 38 -49 49 -160 36z m-40 -43 c0 -5 -5 -10 -11 -10 -5 0 -7 5 -4
10 3 6 8 10 11 10 2 0 4 -4 4 -10z"/>
<path d="M96 1261 c-16 -3 -38 -19 -50 -34 -19 -26 -19 -30 -6 -55 24 -42 61
-58 97 -43 29 12 53 46 53 75 0 19 -39 66 -53 65 -7 -1 -25 -4 -41 -8z"/>
<path d="M2750 629 c12 -9 11 -10 -7 -6 -38 8 -27 -14 35 -73 86 -81 190 -128
228 -102 26 17 35 51 22 80 -16 32 -95 87 -146 102 -51 14 -152 13 -132 -1z"/>
<path d="M515 491 c-79 -23 -117 -44 -148 -81 -48 -57 -44 -140 6 -140 31 0
50 15 92 75 19 27 60 75 91 107 63 65 59 68 -41 39z"/>
<path d="M960 423 c-29 -11 -60 -47 -60 -70 0 -31 42 -73 74 -73 38 0 79 41
79 78 0 54 -42 84 -93 65z m45 -22 c3 -5 1 -12 -5 -16 -5 -3 -10 1 -10 9 0 18
6 21 15 7z"/>
<path d="M2462 358 c13 -17 34 -54 48 -82 18 -35 32 -52 48 -54 20 -3 22 1 22
37 0 34 -6 44 -41 75 -23 19 -54 39 -71 45 l-29 10 23 -31z"/>
<path d="M1910 285 c-7 -8 -18 -15 -25 -15 -7 0 -32 -21 -55 -47 -38 -44 -42
-52 -37 -91 8 -72 70 -122 150 -122 104 0 141 93 89 223 -22 56 -93 87 -122
52z m30 -35 c0 -5 -7 -10 -15 -10 -8 0 -15 5 -15 10 0 6 7 10 15 10 8 0 15 -4
15 -10z"/>
<path d="M910 122 c-17 -14 -20 -22 -12 -42 24 -63 92 -83 137 -40 28 26 31
48 12 74 -19 26 -108 31 -137 8z"/>
</g>
</svg>
